<svg width="9" height="17" viewBox="0 0 9 17" fill="none" xmlns="http://www.w3.org/2000/svg">
<path d="M6.43788 6.375H8.18174C8.51249 6.375 8.81092 6.63438 8.93763 7.03069C9.06435 7.42807 8.9944 7.88468 8.76029 8.18869L2.21484 16.6887C2.05621 16.8952 1.84696 17 1.63597 17C1.46211 17 1.28712 16.9284 1.13974 16.7821C0.814108 16.4584 0.722676 15.8722 0.925995 15.4104L3.49918 9.5625H0.818097C0.526415 9.5625 0.256722 9.36116 0.110574 9.03324C-0.0359831 8.70546 -0.0368013 8.30184 0.107812 7.97287L3.38054 0.535367C3.52597 0.204398 3.7972 0 4.09083 0H8.18174C8.48334 0 8.7606 0.21582 8.90317 0.561266C9.04543 0.906844 9.02988 1.326 8.86246 1.65179L6.43788 6.375Z" fill="#8B79FF"/>
</svg>
