<svg width="8" height="15" viewBox="0 0 8 15" fill="none" xmlns="http://www.w3.org/2000/svg">
<path d="M3.3271 0H4.95327V1.95416C5.3271 2.00241 5.71963 2.08685 6.13084 2.20748C6.54206 2.32811 6.94704 2.49698 7.34579 2.71411L6.6729 4.45115C6.31153 4.25814 5.90654 4.10133 5.45794 3.9807C5.00935 3.84801 4.56698 3.78166 4.13084 3.78166C3.68224 3.78166 3.30841 3.87817 3.00935 4.07117C2.72274 4.25211 2.57944 4.51749 2.57944 4.86731C2.57944 5.20507 2.70405 5.47045 2.95327 5.66345C3.20249 5.84439 3.62617 6.03136 4.2243 6.22437L5.08411 6.49578C6.03115 6.79735 6.75389 7.21954 7.25234 7.76236C7.75078 8.29312 8 8.9626 8 9.77081C8 10.1689 7.92523 10.5489 7.7757 10.9107C7.63863 11.2606 7.42679 11.5742 7.14019 11.8516C6.86604 12.1291 6.52336 12.3643 6.11215 12.5573C5.70093 12.7382 5.22118 12.8649 4.6729 12.9373V15H3.04673V12.9735C2.46106 12.9252 1.92523 12.8227 1.43925 12.6659C0.965732 12.509 0.504673 12.2919 0.0560747 12.0145L0.897196 10.2955C1.34579 10.585 1.80062 10.7961 2.26168 10.9288C2.7352 11.0615 3.19003 11.1279 3.62617 11.1279C4.26168 11.1279 4.71651 11.0193 4.99065 10.8022C5.27726 10.573 5.42056 10.2835 5.42056 9.93365C5.42056 9.62002 5.30218 9.36067 5.06542 9.15561C4.82866 8.93848 4.41121 8.73341 3.81308 8.54041L2.8785 8.2509C2.47975 8.13028 2.10592 7.97949 1.75701 7.79855C1.4081 7.60555 1.1028 7.38239 0.841121 7.12907C0.579439 6.87575 0.373832 6.58625 0.224299 6.26055C0.0747664 5.9228 0 5.53679 0 5.10253C0 4.65621 0.0809968 4.24608 0.242991 3.87214C0.417445 3.48613 0.647975 3.16043 0.934579 2.89505C1.23364 2.61761 1.58255 2.40048 1.98131 2.24367C2.39252 2.07479 2.84112 1.97829 3.3271 1.95416V0Z" fill="white"/>
</svg>
