<svg width="42" height="44" viewBox="0 0 42 44" fill="none" xmlns="http://www.w3.org/2000/svg">
<path d="M2 5.99994C2 16.5047 5.00024 24.9999 21 24.9999C38 24.9999 40 16.5047 40 5.99994C37.6922 5.99994 34.042 5.99994 32.0005 5.99994C31.7316 4.78973 32.0005 1.99994 32.0005 1.99994L10.0005 1.99994C10.0005 1.99994 10.0005 4.75608 10.0005 5.99994C7.51575 5.99994 4.88072 5.99994 2 5.99994Z" stroke="white" stroke-width="4" stroke-miterlimit="10" stroke-linecap="round" stroke-linejoin="round"/>
<path d="M10.0005 1.99994C10.0005 14.7163 10.6477 24.9999 21.0005 24.9999C32.0005 24.9999 32.0005 14.7163 32.0005 1.99994L10.0005 1.99994Z" stroke="white" stroke-width="4" stroke-miterlimit="10" stroke-linecap="round" stroke-linejoin="round"/>
<path d="M19.8284 28.548C20.6182 27.3444 22.3827 27.3444 23.1726 28.548L29.9679 38.9027C30.8407 40.2327 29.8866 42 28.2958 42H14.7052C13.1144 42 12.1603 40.2327 13.0331 38.9027L19.8284 28.548Z" stroke="white" stroke-width="4" stroke-linecap="round" stroke-linejoin="round"/>
</svg>
