<svg width="21" height="30" viewBox="0 0 21 30" fill="none" xmlns="http://www.w3.org/2000/svg">
<path d="M18.2561 11.25H14.3737L19.7716 2.91492C20.1443 2.34 20.179 1.60031 19.8622 0.990469C19.5448 0.380859 18.9275 0 18.2561 0H9.14833C8.49462 0 7.89078 0.360703 7.567 0.944766L0.280798 14.0698C-0.0411607 14.6503 -0.039339 15.3626 0.286946 15.941C0.61232 16.5197 1.21275 16.875 1.86213 16.875H7.83112L2.10235 27.1948C1.64969 28.0097 1.85325 29.0442 2.57823 29.6154C2.90633 29.8737 3.29592 30 3.683 30C4.15273 30 4.61859 29.8151 4.97174 29.4506L19.5441 14.4506C20.0653 13.9141 20.2211 13.1084 19.939 12.4071C19.6569 11.7077 18.9924 11.25 18.2561 11.25ZM3.68368 28.125L10.3153 16.1791C10.3153 16.1791 10.3153 16.0052 10.3153 15.9375C10.3153 15.4193 9.90792 15 9.40448 15H1.86213L9.14833 1.875H18.2561L11.9758 11.5723C11.9758 11.5723 11.7668 11.9604 11.7668 12.1875C11.7668 12.7057 12.1742 13.125 12.6776 13.125H18.2561L3.68368 28.125Z" fill="#745FF8"/>
</svg>
